<?xml version="1.0" standalone="no"?>
<!DOCTYPE svg PUBLIC "-//W3C//DTD SVG 20010904//EN"
 "http://www.w3.org/TR/2001/REC-SVG-20010904/DTD/svg10.dtd">
<svg version="1.0" xmlns="http://www.w3.org/2000/svg"
 width="256.000000pt" height="256.000000pt" viewBox="0 0 256.000000 256.000000"
 preserveAspectRatio="xMidYMid meet">

<g transform="translate(0.000000,256.000000) scale(0.100000,-0.100000)"
fill="#000000" stroke="none">
<path d="M170 2475 l0 -85 -85 0 -85 0 0 -1195 0 -1195 1280 0 1280 0 0 1195
0 1195 -75 0 -75 0 0 85 0 85 -1120 0 -1120 0 0 -85z m2240 -1205 l0 -1120
-1120 0 -1120 0 0 1120 0 1120 1120 0 1120 0 0 -1120z"/>
<path d="M320 2155 l0 -85 85 0 85 0 0 85 0 85 -85 0 -85 0 0 -85z"/>
<path d="M2080 2155 l0 -85 85 0 85 0 0 85 0 85 -85 0 -85 0 0 -85z"/>
<path d="M800 1990 l0 -80 -75 0 -75 0 0 -240 0 -240 75 0 75 0 0 -75 0 -75
165 0 165 0 0 -160 0 -160 75 0 75 0 0 -85 0 -85 -75 0 -75 0 0 -155 0 -155
75 0 75 0 0 -85 0 -85 160 0 160 0 0 160 0 160 -75 0 -75 0 0 80 0 80 75 0 75
0 0 160 0 160 165 0 165 0 0 325 0 325 -80 0 -80 0 0 75 0 75 -85 0 -85 0 0
80 0 80 -400 0 -400 0 0 -80z m650 -395 l0 -165 -85 0 -85 0 0 -75 0 -75 -75
0 -75 0 0 240 0 240 160 0 160 0 0 -165z"/>
<path d="M320 395 l0 -85 85 0 85 0 0 85 0 85 -85 0 -85 0 0 -85z"/>
<path d="M2080 395 l0 -85 85 0 85 0 0 85 0 85 -85 0 -85 0 0 -85z"/>
</g>
</svg>
